<mxfile host="65bd71144e">
    <diagram id="lw_pdphjUDI911vhnv9R" name="Página-1">
        <mxGraphModel dx="567" dy="717" grid="1" gridSize="10" guides="1" tooltips="1" connect="1" arrows="1" fold="1" page="1" pageScale="1" pageWidth="827" pageHeight="1169" math="0" shadow="0">
            <root>
                <mxCell id="0"/>
                <mxCell id="1" parent="0"/>
                <mxCell id="6" value="SQL(Structured Query Language)" style="swimlane;whiteSpace=wrap;html=1;" parent="1" vertex="1">
                    <mxGeometry x="110" y="300" width="816" height="350" as="geometry">
                        <mxRectangle x="214" y="50" width="230" height="30" as="alternateBounds"/>
                    </mxGeometry>
                </mxCell>
                <mxCell id="8" value="&#10;&lt;div style=&quot;box-sizing: border-box; font-family: -apple-system, BlinkMacSystemFont, &amp;quot;Segoe UI&amp;quot;, system-ui, &amp;quot;Apple Color Emoji&amp;quot;, &amp;quot;Segoe UI Emoji&amp;quot;, &amp;quot;Segoe UI Web&amp;quot;, sans-serif; font-size: 14px; font-style: normal; font-variant-ligatures: normal; font-variant-caps: normal; font-weight: 400; letter-spacing: normal; orphans: 2; text-align: start; text-indent: 0px; text-transform: none; widows: 2; word-spacing: 0px;&quot;&gt;A Linguagem de consulta estruturada (SQL) é uma linguagem de programação para armazenar e processar informações em um banco de dados relacional.&lt;/div&gt;&#10;&#10;" style="text;strokeColor=none;align=center;fillColor=none;html=1;verticalAlign=middle;whiteSpace=wrap;rounded=0;" parent="6" vertex="1">
                    <mxGeometry x="6" y="90" width="174" height="130" as="geometry"/>
                </mxCell>
                <mxCell id="12" value="&lt;span style=&quot;font-size: 36px;&quot;&gt;SQL&lt;/span&gt;" style="text;html=1;align=center;verticalAlign=middle;resizable=0;points=[];autosize=1;strokeColor=none;fillColor=none;fontSize=48;" parent="6" vertex="1">
                    <mxGeometry x="5" y="20" width="100" height="70" as="geometry"/>
                </mxCell>
                <mxCell id="13" value="SQL" style="rounded=1;whiteSpace=wrap;html=1;fontSize=36;fillColor=#0050ef;fontColor=#ffffff;strokeColor=#001DBC;" parent="6" vertex="1">
                    <mxGeometry x="330" y="50" width="300" height="40" as="geometry"/>
                </mxCell>
            </root>
        </mxGraphModel>
    </diagram>
</mxfile>